<svg xmlns="http://www.w3.org/2000/svg" viewBox="0 0 2235.2 644.14"><defs><style>.cls-1{fill:#231f20;}</style></defs><g id="Layer_2" data-name="Layer 2"><g id="Layer_1-2" data-name="Layer 1"><path class="cls-1" d="M1144.39,124.23c-19.58,2.28-39.14,4.79-58.75,6.76-17.34,1.75-34.75,2.78-52.11,4.31-22.35,2-44.75,2.95-67.16,3.59-19.29.55-38.6,1.13-57.87-.53-1.33-.12-2.69.09-4-.12-3.59-.57-4.65.56-4.79,4.44-.63,17.07-3.25,33.95-6.37,50.72-2,10.87-2.29,10.86,8.75,10.78,21.47-.15,43-.53,64.39,1.13a657.41,657.41,0,0,1,69.9,9,727.34,727.34,0,0,1,71,16.88c1.06.31,2.08.76,4.19,1.54-12.92,2.47-24.86,3.43-36.78,4.43-16.21,1.37-32.44,2.5-48.67,3.69q-16.4,1.21-32.8,2.33c-14.56,1-29.09,2.31-43.62,3.74-15.84,1.56-31.6,3.53-47.26,6.28-3.9.68-7.78,1.42-11.68,2.1-2.84.5-3.4,2.77-3.83,5-.8,4.21-1.41,8.46-2.19,12.68-.35,2-.23,3.87-3.64,2.43-9.08-3.87-18.93-4.34-28.62-5.24-28.62-2.65-57.33-4.72-84.32-16-6.55-2.73-14.43-4.61-18.34-10.22-3.37-4.83-1.2-12.27-.89-18.5.79-15.91-1.91-31.35-5.28-46.74-2.62-12-1.78-24.15-1.94-36.26-.18-14,2-27.85,2.11-41.81,0-4.42,2.42-4,5.27-3.44q36,7.81,72,15.63c5.8,1.25,11.77,1.87,17.41,3.6,4,1.21,3.7-.64,3.68-3.2,0-6.83.09-13.67-.06-20.49-.07-3,.74-4.23,4.07-4.74,14.08-2.14,28.17-1.18,42.22-.33,13.41.81,26.78,2.24,40.16,3.5,15.53,1.46,31,3.06,46.58,4.53a76.71,76.71,0,0,0,9.46.43c42.26-1.22,83.32,6.39,124.05,16.59,11.17,2.8,22.27,5.79,33.2,9.43.89.3,1.74.74,2.61,1.12C1144.46,123.64,1144.42,123.94,1144.39,124.23Z"/><path class="cls-1" d="M1979.43,629.59c-4.34-21.27-14.65-39.15-23.08-57.79a186.59,186.59,0,0,1-15.81-62.91c-2.18-27.63-4.25-55.27-6-82.94-1.38-22.21-2.77-44.41-4-66.62-1.64-30.2-3.38-60.38-4.1-90.62-.17-7.31-.12-14.64-.46-21.94-.15-3.33,1.43-4.06,4.27-3.49l102.27,20.59c7.1,1.43,14.16,3.15,21.33,4.1,3.09.41,3.09,1.78,2.75,3.86-2.07,12.88-4.25,25.75-6.28,38.64q-3.9,24.7-7.64,49.44c-2.28,15-4.56,30.09-6.71,45.15-1.82,12.77-3.09,25.63-5.23,38.35-3,17.87-6.74,35.63-9.93,53.47-4.64,26-9.71,51.85-16.18,77.42-3.08,12.19-9.34,23.18-14.56,34.53A176.61,176.61,0,0,1,1979.43,629.59Z"/><path class="cls-1" d="M1458.53,643.3c-7.57-32.86-18.27-64.77-27.18-97.18-5.49-20-11.45-39.93-14.28-60.53-2.25-16.4-3.92-32.89-5.4-49.4-2.39-26.48-3.71-53-4.41-79.56-.72-27.09-1.34-54.22.43-81.32.33-5.13-.28-10.28.81-15.43.51-2.4,1.26-3,3.5-2.57q41.74,8.13,83.49,16.2c11.33,2.2,22.62,4.56,34,6.56,2.51.44,3.23,1.21,3.48,3.67,1.74,17.12.34,34.15-.93,51.21-1.22,16.52-3.5,32.89-6.09,49.25-3.28,20.68-7.44,41.18-11.93,61.63-14.47,66.06-33.62,130.81-54.08,195.21C1459.63,641.94,1459.81,643.08,1458.53,643.3Z"/><path class="cls-1" d="M298.47,644.14c-10-41.51-23.5-81.5-34.12-122.31A414.66,414.66,0,0,1,253.78,461c-3-28.41-5.15-56.85-6.11-85.4-.32-9.3-.49-18.6-.82-27.9-.9-24.61,0-49.22.11-73.82,0-4.64.69-9.27.93-13.91.13-2.58,1.53-3.05,3.67-2.63l62.63,12.15c18.27,3.56,36.53,7.23,54.83,10.61,3,.56,3.88,1.75,3.91,4.54.21,22.28-.2,44.48-2.8,66.69-8.33,70.93-26.3,139.7-45.71,208.16Q313,599.76,300,639.58C299.52,641,299.06,642.34,298.47,644.14Z"/><path class="cls-1" d="M777.19,627.51a210.59,210.59,0,0,1-5.34-28.57c-2.94-22.18-4-44.57-7.69-66.67A217.7,217.7,0,0,1,761.91,509c-1.07-18.45-1.1-36.92-1.17-55.39-.09-21.12-.44-42.25-2.06-63.3-1.39-18-3.8-35.95-5.6-53.94-1.53-15.35-2.82-30.72-4.26-46.07-.69-7.41-1.47-14.8-2.27-22.79,12.44,3,24.23,5.81,36,8.77,31.42,7.89,62.81,15.95,94.27,23.67,3.4.83,4,2.12,4.24,5.22,2.55,35.73-3.85,70.52-9.65,105.56-7.16,43.24-24.53,82.46-43.27,121.35C812.56,564.38,795,595.6,777.19,627.51Z"/><path class="cls-1" d="M1421.58,86.44c22.42.38,44.79,1.49,67.13,3.61,18.84,1.79,37.74,3,56.63,4.13,13.92.81,14.45,1.26,13.31,15.51-2.78,34.83-7.4,69.39-13.64,103.76-2.19,12-4.51,24-7.23,35.84-.6,2.63-1.17,3.85-4.78,3.14-17.3-3.42-34.91-3.8-52.48-4.63-18.5-.87-37.06-1.73-54.9-7.55-3.43-1.12-6.72-2.72-10.18-3.72-9.57-2.76-12.9-8.18-13.13-18.83-.73-34.36-2.89-68.68-3.73-103.06-.19-7.79-.55-15.6-.88-23.4-.16-3.58,1.3-4.76,4.41-4.78C1408.6,86.41,1415.09,86.44,1421.58,86.44Z"/><path class="cls-1" d="M261,86.25c22.42.52,44.78,1.69,67.12,3.78,18.82,1.76,37.7,2.83,56.56,4.22,3.8.28,7.6.82,11.4.9,2.56.06,2.56,1.52,2.45,3.28-.63,10.43-1,20.9-2,31.29-1.24,12.52-3.07,25-4.64,37.45-2,16.05-4.68,32-7.53,47.91-2,11.35-4.27,22.65-7,33.86-.73,3.07-1.37,4.14-5.05,3.43-17.3-3.36-34.89-3.75-52.45-4.57-18.49-.85-37-1.83-54.85-7.56a102.21,102.21,0,0,1-19.47-8.38,4.9,4.9,0,0,1-2.89-4.64c-.51-14.26-1.23-28.52-1.89-42.78-1.42-30.53-2.86-61.06-3.2-91.64-.06-5.29,1.77-6.68,6.4-6.58C249.71,86.34,255.37,86.25,261,86.25Z"/><path class="cls-1" d="M1910.12,68.4l94,23.4c19.15,4.77,38.25,9.73,57.46,14.2,3.69.85,4.38,2.24,4.35,5.58-.19,19.78-1.36,39.49-3,59.2-1.89,22.67-3.39,45.36-5.21,68-.34,4.14-1.08,8.23-1,12.41.06,2.19-.37,3.29-3.23,2.49-38-10.58-76.09-20.94-112.47-36.55a197.06,197.06,0,0,1-19.89-9.92,5.4,5.4,0,0,1-3.13-5c-1-18.24-2.14-36.48-3.3-54.71-1.5-23.52-3.07-47-4.56-70.54C1910,74.3,1910.12,71.63,1910.12,68.4Z"/><path class="cls-1" d="M2098,279.56c7.92-2,14.85-3.32,21.37-6.22,28.82-12.85,45.57-35.38,52.23-65.62,5.11-23.21.63-44.77-14.09-63.62-12.53-16-29.85-24.72-49.14-29.73-9.12-2.37-18.41-4.24-27.91-4.07-3.78.07-5.12-1.8-5.67-5.07-2.27-13.66-4.49-27.33-7-40.95-.58-3.15,1.47-3.32,3.22-3.65,7.83-1.44,15.7-2.88,23.7-2.33,28.26,1.93,55.35,8.54,80.69,21.38,20.58,10.42,38.42,24.12,49.75,44.89,9.56,17.52,11.61,36.2,8.88,55.7a112.62,112.62,0,0,1-24.43,56c-18.67,23.17-42.87,37.39-72.13,42.93-10.33,2-20.77,2.25-31.25,2A20.33,20.33,0,0,1,2098,279.56Z"/><path class="cls-1" d="M627.31,96.84C612,102.9,597.18,109,582.17,114.7c-43.32,16.45-86.83,32.36-131.47,44.91-10.62,3-21.23,6.06-32.36,6.79-3.64.24-5.09-1-5.36-4.46q-2-25-4.13-50.1c-.49-5.79-1.06-11.57-1.8-17.33-.31-2.44-.18-3.53,2.87-3.43q44.88,1.36,89.78,2.45,18.7.47,37.42.69,43.46.56,86.89,1C624.89,95.27,626,94.75,627.31,96.84Z"/><path class="cls-1" d="M1787.06,96c-.84,1.79-2.78,2-4.31,2.6-56.27,23.14-113.34,44.08-171.8,61.06-10.89,3.16-21.84,6.4-33.38,6.71-3.06.09-3.68-.78-3.93-3.82-1.74-20.83-3.71-41.64-5.76-62.44-.88-9-1-9.17,7.76-8.86,31.26,1.1,62.53,1.6,93.79,2.47,19.48.54,39,.18,58.42.76,19,.57,38,.51,56.93.75C1785.52,95.26,1786.43,94.89,1787.06,96Z"/><path class="cls-1" d="M1160.12,99.24c7.86,0,14.9.14,21.93,0,16.28-.38,32.47-2,48.64-3.78,16.65-1.81,33.32-3.39,50-5.25,15.81-1.76,31.58-3.94,47.4-5.59,16.5-1.72,33-3.78,49.57-4.48,4-.17,4.82,1.53,5.19,4.7q1.9,16.29,4,32.54c.51,4,.34,6.39-5,6-21.68-1.64-43.43-2.3-65.14-3.81-19.22-1.33-38.45-2.54-57.62-4.37-31.6-3-63.34-5.27-94.34-12.83A6.08,6.08,0,0,1,1160.12,99.24Z"/><path class="cls-1" d="M.27,99.27c6.25,0,12.49.11,18.73,0,23.91-.51,47.64-3.21,71.36-6,26.16-3,52.29-6.24,78.49-8.9,16.32-1.67,32.62-3.87,49.07-4.2,2.65-.06,3.86.18,4.19,3.55,1.2,12.17,2.92,24.3,4.63,36.42.35,2.51-.26,3.22-2.72,3.1-16.75-.86-33.51-1.53-50.26-2.47-12.25-.69-24.5-1.6-36.73-2.57q-22.32-1.76-44.61-3.8c-14-1.3-28-2.58-42-4.23-15.9-1.88-31.77-4.06-47.32-8.07A18.93,18.93,0,0,1,0,100.75Z"/><path class="cls-1" d="M809.1,42.32A229.68,229.68,0,0,1,812.78,7c.6-3.22,3-3.55,5.08-3.68C844.68,1.75,857.12,22,854.44,43.69a42,42,0,0,1-11.82,24.59c-5.44,5.59-11.69,9.73-19.8,7.42S812.43,66,811,58.81C809.77,52.67,809.53,46.33,809.1,42.32Z"/><path class="cls-1" d="M1979.67,41.05c-.2-10.47,1.34-20.79,2.7-31.14.45-3.45,2.27-4.52,5.16-4.59,19.45-.48,33.43,8.22,36.18,30.44,1.79,14.48-3.44,26.94-14,37-10.1,9.67-22.28,6.78-27-6.27a48.74,48.74,0,0,1-2-7.11A90.71,90.71,0,0,1,1979.67,41.05Z"/><path class="cls-1" d="M1463.7,38.24c.12-12.7,1.72-23.35,3-34,.4-3.28,2.91-3.66,5-3.77,15.53-.85,33.26,5.34,36.24,27.09,1.79,13.1-1.76,24.37-9.18,34.84a26,26,0,0,1-8.54,7.49c-9.58,5.48-18.36,2.48-22.57-7.76a34.13,34.13,0,0,1-2.61-8.43C1464.31,47.93,1463.13,42.18,1463.7,38.24Z"/><path class="cls-1" d="M348,39.19c-.12,6.41-3.73,16.26-11.08,24.69-5.33,6.1-11.8,10.21-20.08,7.92S306.29,62.13,305,54.88c-2.55-14.48-1.54-29,.47-43.51.07-.5.24-1,.31-1.47C307.05.76,309.34-.93,318.69.4,338.33,3.2,348,14.37,348,39.19Z"/></g></g></svg>