<?xml version="1.0" encoding="utf-8"?>
<!-- Generator: Adobe Illustrator 25.2.0, SVG Export Plug-In . SVG Version: 6.00 Build 0)  -->
<svg version="1.1" id="Layer_1" xmlns="http://www.w3.org/2000/svg" xmlns:xlink="http://www.w3.org/1999/xlink" x="0px" y="0px"
	 viewBox="0 0 2289 688" style="enable-background:new 0 0 2289 688;" xml:space="preserve">
<style type="text/css">
	.st0{fill:#231F20;}
</style>
<g>
	<polygon class="st0" points="1166.6,146.1 1145.4,148.6 1124.2,151.1 1103,153.3 1081.8,155.1 1051.3,157.5 1020.7,159.4 
		990.2,160.7 959.6,161.3 952.4,161.2 945.1,161.1 937.9,160.7 930.7,160.2 929.7,160.2 928.7,160.2 927.7,160.2 926.7,160.1 
		925.5,159.9 924.4,160 923.6,160.2 923,160.6 922.5,161.3 922.2,162.1 922,163.2 921.9,164.5 921.6,170.9 921.1,177.3 920.4,183.6 
		919.6,190 918.7,196.3 917.7,202.6 916.7,208.9 915.5,215.2 914.5,221.5 915,224.7 917.9,225.9 924.3,226 949.2,225.8 974.1,226.4 
		999,228 1023.7,230.7 1041.5,233.2 1059.2,236.3 1076.8,239.8 1094.3,243.7 1104.2,246.2 1114.2,248.7 1124,251.4 1133.8,254.6 
		1118.5,256.9 1103.3,258.5 1088,259.7 1072.7,260.9 1052.9,262.4 1033.2,263.8 1013.5,265.2 993.7,266.7 976.4,268.3 959.1,270.1 
		941.8,272.3 924.7,275 921.7,275.6 918.8,276.1 915.9,276.6 913,277.1 912,277.4 911.2,277.8 910.6,278.4 910.2,279 909.3,281.3 
		908.8,283.7 908.5,286.1 908.1,288.5 907.8,290.1 907.5,291.7 907.3,293.3 907,294.9 906.8,295.6 906.7,296.3 906.6,296.9 
		906.3,297.3 905.9,297.7 905.3,297.8 904.4,297.7 903.3,297.3 896.4,295 889.2,293.6 882,292.7 874.7,292 864,291.1 853.2,290 
		842.6,288.8 831.9,287.3 821.4,285.4 810.9,282.9 800.6,279.9 790.4,276.1 785.5,274.2 780.4,272.2 775.8,269.5 772,265.9 
		770.4,261.6 770.2,256.9 770.7,252 771.2,247.4 771.3,241.4 771.1,235.5 770.7,229.6 770.1,223.8 768.5,213.5 766.4,203.2 
		764.7,192.9 764,182.5 763.9,172.8 763.9,163 764.2,153.2 764.9,143.4 765.3,138.2 765.7,133 765.9,127.8 766,122.6 766.4,120.2 
		767.5,119 769.2,118.8 771.3,119.1 793.6,124 816,128.8 838.4,133.6 860.7,138.3 862,138.7 862.9,138.7 863.6,138.5 864,138.2 
		864.3,137.6 864.4,136.9 864.4,136.1 864.4,135.1 864.4,130 864.4,124.9 864.4,119.8 864.3,114.7 864.5,112.7 865.1,111.3 
		866.4,110.4 868.4,109.9 873.7,109.3 878.9,108.8 884.2,108.6 889.5,108.6 916.5,110 943.5,112.3 970.4,115 997.3,117.6 
		999.7,117.8 1002.1,118 1004.4,118.1 1006.8,118 1022.6,118 1038.3,118.7 1053.9,120.1 1069.4,122.1 1089.1,125.4 1108.7,129.4 
		1128.2,134 1147.5,139 1152.4,140.4 1157.2,141.8 1162,143.4 1166.7,145.2 1166.6,145.4 1166.6,145.6 1166.6,145.8 1166.6,146.1 	
		"/>
	<polygon class="st0" points="2001.6,651.4 1994.6,628.7 1984.9,607 1975.1,585.4 1967.9,562.9 1966.1,555 1964.6,547 1963.5,538.9 
		1962.7,530.7 1961.1,510 1959.6,489.3 1958.1,468.5 1956.7,447.8 1954.2,405.8 1951.8,363.7 1949.8,321.7 1948.5,279.6 
		1948.5,276.8 1948.4,274.1 1948.3,271.3 1948.2,268.6 1948.4,266.6 1949.2,265.4 1950.6,265 1952.5,265.1 1980.7,270.8 2009,276.5 
		2037.2,282.2 2065.4,287.9 2068.1,288.5 2070.7,289 2073.4,289.4 2076.1,289.8 2077.8,290.2 2078.7,291 2079,292.1 2078.8,293.7 
		2077.3,303.3 2075.7,313 2074.1,322.6 2072.6,332.3 2068.2,360.7 2063.8,389.1 2059.6,417.6 2055.7,446.1 2053.1,464.3 
		2049.9,482.5 2046.4,500.6 2043.1,518.7 2039.5,538.2 2035.6,557.6 2031.5,576.9 2026.9,596.1 2025.6,600.7 2024,605.1 
		2022.3,609.4 2020.4,613.7 2015.8,623.2 2011.4,632.7 2006.8,642.2 2001.6,651.4 	"/>
	<polygon class="st0" points="1480.7,665.1 1474.5,640.7 1467.6,616.4 1460.5,592.2 1453.5,568 1449.4,553 1445.4,537.9 
		1441.9,522.8 1439.2,507.4 1435.5,475.3 1432.6,443.1 1430.6,410.8 1429.4,378.5 1428.9,354.3 1428.8,330.1 1429.3,305.9 
		1430.7,281.7 1431.1,280.3 1431.7,279.4 1432.7,279 1434.2,279.1 1455,283.2 1475.9,287.2 1496.8,291.3 1517.7,295.3 1526.2,297 
		1534.6,298.7 1543.1,300.3 1551.6,301.9 1553.2,302.3 1554.2,303 1554.8,304 1555.1,305.6 1555.9,318.4 1555.8,331.2 1555.1,344 
		1554.2,356.8 1553.1,369.1 1551.7,381.5 1550,393.8 1548.1,406 1540.7,446.4 1531.9,486.5 1522.1,526.3 1511.4,565.9 1504.4,590.2 
		1497.1,614.5 1489.7,638.7 1482.1,662.9 1481.9,663.6 1481.8,664.3 1481.4,664.8 1480.7,665.1 	"/>
	<polygon class="st0" points="320.6,666 310.6,627.7 299.4,589.9 288.7,551.9 280.1,513.4 275.8,481.1 272.7,448.6 270.7,416 
		269.4,383.4 269,370.7 268.8,358 268.6,345.3 268.7,332.6 268.9,319.9 269,307.2 269.3,294.4 270.1,281.8 270.4,280.2 271.1,279.3 
		272.2,279 273.7,279.1 281.6,280.7 289.4,282.2 297.2,283.7 305,285.2 326.6,289.4 348.1,293.6 369.6,297.8 391.2,301.9 393,302.4 
		394.2,303.3 394.9,304.6 395.1,306.4 395.2,314.8 395.1,323.1 395,331.5 394.8,339.8 392.1,374.7 387.3,409.5 380.9,443.9 
		373.6,478.1 361.9,525.5 349.1,572.6 335.3,619.4 320.6,666 	"/>
	<polygon class="st0" points="799.4,649.3 794.7,625.7 791.9,601.9 789.5,578 786.3,554.1 783.8,526.6 783,499 782.9,471.4 
		782.5,443.8 781.6,422.3 779.8,400.9 777.6,379.6 775.3,358.2 773.6,341 772.1,323.8 770.5,306.6 768.7,289.4 801.4,297.3 
		833.9,305.5 866.4,313.7 899,321.8 901,322.5 902.2,323.5 902.9,325 903.2,327 903.6,353.7 901.5,380 897.9,406.3 893.6,432.6 
		890.4,448.6 886.4,464.3 881.7,479.7 876.3,494.9 859.5,534.6 840.6,573.4 820.3,611.5 799.4,649.3 	"/>
	<polygon class="st0" points="1443.8,108.3 1467.7,108.9 1491.5,110.4 1515.3,112.2 1539.2,114.2 1546.3,114.7 1553.3,115.2 
		1560.4,115.6 1567.5,116 1572.1,116.3 1575.6,116.8 1578.1,117.5 1579.8,118.7 1580.8,120.6 1581.2,123.2 1581.2,126.8 
		1580.8,131.5 1579.7,144.6 1578.4,157.6 1576.9,170.6 1575.3,183.6 1572.8,201.1 1570.1,218.5 1567.1,235.9 1563.8,253.2 
		1562.9,257.7 1561.9,262.2 1561,266.7 1560,271.1 1559.7,272 1559.5,272.8 1559.1,273.5 1558.7,273.9 1558.1,274.3 1557.4,274.4 
		1556.4,274.4 1555.2,274.3 1548.7,273.1 1542.2,272.2 1535.6,271.5 1529,271 1508.6,269.9 1488.1,268.9 1467.8,266.7 1447.8,262.1 
		1438.4,258.7 1431.2,255.4 1426.4,249.8 1424.5,239.5 1423.5,207.9 1422.2,176.3 1421,144.7 1419.9,113.1 1420,110.9 1420.8,109.4 
		1422.2,108.6 1424.3,108.3 1429.2,108.3 1434,108.3 1438.9,108.3 1443.8,108.3 	"/>
	<polygon class="st0" points="283.2,108.1 307.1,108.9 330.9,110.4 354.8,112.2 378.6,114.1 387.1,114.7 395.6,115.3 404.1,115.9 
		412.6,116.6 414,116.7 415.4,116.8 416.9,116.9 418.3,117 419.1,117.1 419.8,117.3 420.2,117.6 420.5,118 420.7,118.5 420.8,119 
		420.8,119.6 420.7,120.3 420.5,124.2 420.3,128.1 420.1,132 419.9,135.9 419.3,144.5 418.6,153.1 417.6,161.7 416.6,170.3 
		413.2,195.6 409.4,220.8 404.9,245.8 399.6,270.8 399,272.8 398.1,273.9 396.8,274.4 394.6,274.2 388.1,273.1 381.5,272.2 
		375,271.5 368.4,271 354.9,270.2 341.4,269.6 327.9,268.9 314.5,267.7 305,266.3 295.6,264.4 286.3,261.8 277.3,258.4 274.9,257.3 
		272.5,256.2 270.1,255 267.8,253.7 266.5,252.8 265.7,251.8 265.1,250.6 264.9,249.1 264,226.9 263,204.8 261.9,182.6 261,160.5 
		260.6,149 260.3,137.6 260,126.1 259.8,114.6 259.9,112.8 260.1,111.4 260.6,110.2 261.3,109.3 262.1,108.7 263.3,108.3 
		264.6,108.1 266.2,108.1 270.5,108.1 274.7,108.1 279,108.1 283.2,108.1 	"/>
	<polygon class="st0" points="1932.3,90.2 1963,97.9 1993.7,105.5 2024.3,113.2 2055,120.8 2062.1,122.6 2069.3,124.4 2076.5,126.1 
		2083.7,127.8 2085,128.2 2086,128.6 2086.7,129.1 2087.3,129.7 2087.7,130.4 2087.9,131.3 2088,132.3 2088.1,133.4 2087.8,148.2 
		2087.1,163 2086.2,177.8 2085.1,192.6 2083.5,212.7 2081.9,232.8 2080.4,253 2078.9,273.1 2078.8,274.6 2078.3,275.5 2077.3,275.8 
		2075.7,275.5 2044.5,266.8 2013.5,257.5 1982.9,246.9 1953.1,234.3 1950.6,233.1 1948.2,231.8 1945.7,230.4 1943.3,229.1 
		1941.9,228.1 1941,227 1940.4,225.7 1940.2,224 1938.9,201.5 1937.5,179 1936.1,156.5 1934.6,134.1 1933.9,123.1 1933.1,112.2 
		1932.5,101.2 1932.3,90.2 	"/>
	<polygon class="st0" points="2120.2,301.4 2123.1,300.7 2126,300 2128.7,299.3 2131.4,298.6 2144.5,293.9 2156.5,287 2167.2,278.5 
		2176,268.9 2185.8,253 2192.7,234.5 2195.7,215 2194.2,196.1 2192,188.2 2188.8,180.6 2184.8,173.1 2179.7,165.9 2166.8,153 
		2151.5,143.7 2134.6,137.3 2116.8,133.2 2113.3,132.7 2109.8,132.4 2106.2,132.2 2102.7,132.1 2101.4,132.1 2100.3,131.8 
		2099.4,131.4 2098.6,130.9 2098,130.1 2097.6,129.2 2097.2,128.2 2097,127.1 2096.1,121.9 2095.3,116.8 2094.4,111.7 2093.6,106.6 
		2092.7,101.5 2091.8,96.3 2090.9,91.2 2090,86.1 2090,84.4 2090.6,83.3 2091.8,82.8 2093.2,82.5 2099.1,81.4 2105,80.6 2111,80.1 
		2116.9,80.1 2127.5,81.1 2137.9,82.5 2148.2,84.4 2158.4,86.7 2191,98.2 2221.1,116.2 2244.3,141.2 2256.4,173.5 2253.1,217.5 
		2233.3,256.1 2201,285.4 2159.7,301 2151.9,302.2 2144.1,302.8 2136.3,303.1 2128.4,303 2126.3,302.9 2124.3,302.7 2122.3,302.2 
		2120.2,301.4 	"/>
	<polygon class="st0" points="649.5,118.7 605.9,135.9 562,152.4 517.7,167.7 472.9,181.4 464.9,183.7 456.9,185.7 448.8,187.3 
		440.5,188.2 439.3,188.3 438.2,188.1 437.3,187.9 436.6,187.4 436,186.8 435.6,186 435.3,185 435.2,183.8 434.7,177.5 434.2,171.2 
		433.6,165 433.1,158.7 432.6,152.5 432.1,146.2 431.6,139.9 431,133.7 430.6,129.3 430.2,125 429.7,120.7 429.2,116.3 429.1,114.7 
		429.4,113.6 430.4,113 432.1,112.9 463.9,113.8 495.7,114.7 527.5,115.5 559.3,116.1 581,116.3 602.7,116.6 624.5,116.8 
		646.2,117.1 647.1,117.1 648,117.2 648.7,117.7 649.5,118.7 	"/>
	<polygon class="st0" points="1809.2,117.9 1808.4,118.9 1807.4,119.6 1806.1,120 1804.9,120.5 1762.6,137.4 1719.8,153.3 
		1676.7,168.1 1633.1,181.5 1624.9,183.9 1616.7,185.9 1608.3,187.5 1599.7,188.2 1597.9,188.1 1596.7,187.5 1596.1,186.3 
		1595.8,184.4 1594.5,168.8 1593.1,153.2 1591.6,137.6 1590.1,122 1589.7,116.8 1590.3,114.1 1592.7,113.1 1597.8,113.1 
		1635.9,114.2 1673.9,115.1 1712,115.8 1750,116.3 1764.3,116.7 1778.5,116.8 1792.7,116.9 1807,117.1 1807.6,117 1808.2,117.1 
		1808.8,117.3 1809.2,117.9 	"/>
	<polygon class="st0" points="1182.3,121.1 1200,121.1 1217.7,120.4 1235.3,119.1 1252.9,117.3 1265.4,116 1277.8,114.7 
		1290.3,113.4 1302.8,112 1314.7,110.6 1326.5,109.2 1338.4,107.8 1350.2,106.4 1362.6,105.1 1375,103.8 1387.4,102.7 1399.8,102 
		1402.1,102.1 1403.7,103 1404.5,104.5 1405,106.7 1405.5,110.7 1405.9,114.8 1406.4,118.9 1406.9,122.9 1407.4,127 1407.9,131.1 
		1408.4,135.1 1409,139.2 1409.1,142 1408.6,143.9 1407,145 1403.9,145.2 1380.4,143.7 1356.9,142.4 1333.4,141 1310,139.4 
		1290.9,137.8 1271.8,136.2 1252.8,134.3 1233.8,132.3 1222,130.7 1210.2,128.9 1198.5,126.8 1186.8,124.2 1185.5,123.8 
		1184.3,123.2 1183.3,122.4 1182.3,121.1 	"/>
	<polygon class="st0" points="22.4,121.1 45,121 67.6,119.7 90.1,117.7 112.5,115.1 138.3,112.1 164,109.2 189.7,106.3 215.5,103.6 
		221.6,103.1 227.8,102.6 233.9,102.2 240.1,102 241.9,102.1 243.1,102.6 243.9,103.7 244.3,105.6 245.3,114.7 246.4,123.8 
		247.6,132.9 248.9,142 249,142.9 249,143.6 248.9,144.1 248.6,144.5 248.2,144.8 247.7,145 247,145.1 246.2,145.1 239.9,144.8 
		233.6,144.5 227.3,144.2 221.1,143.9 194.4,142.5 167.8,140.7 141.2,138.6 114.6,136.3 98.1,134.7 81.6,133.1 65.2,131.1 
		48.8,128.8 42.8,127.8 37,126.7 31.1,125.4 25.2,124 24.4,123.7 23.7,123.3 22.9,123 22.2,122.6 22.2,122.2 22.3,121.8 22.4,121.5 
		22.4,121.1 	"/>
	<polygon class="st0" points="831.3,64.2 831.7,55 832.5,46.2 833.5,37.6 834.9,28.9 835.6,27.1 836.8,26 838.3,25.4 840,25.2 
		856.9,27.5 868.9,36.1 875.6,49.3 876.6,65.5 875.2,72.4 872.8,78.8 869.3,84.7 864.8,90.1 860.6,94 855.9,96.8 850.7,98.1 
		845,97.5 837.5,92.3 833.7,83.5 832.1,73.3 831.3,64.2 	"/>
	<polygon class="st0" points="2001.8,62.9 2002,55.1 2002.6,47.3 2003.5,39.5 2004.5,31.7 2005.1,29.7 2006.1,28.2 2007.7,27.4 
		2009.7,27.1 2016.7,27.4 2023.2,28.6 2029,30.7 2034.1,33.9 2041.1,42.2 2045.2,53.7 2046.1,66.2 2043.5,77.8 2039.3,85.8 
		2032.9,93.7 2025.1,99.1 2016.4,100 2008.2,94.4 2003.8,84.7 2002,73.4 2001.8,62.9 	"/>
	<polygon class="st0" points="1485.9,60.1 1486.2,51.3 1486.9,42.8 1487.8,34.5 1488.9,26 1489.5,24.2 1490.6,23.1 1492.1,22.5 
		1493.9,22.3 1506.5,23.3 1517.5,27.9 1525.8,36.5 1530.1,49.4 1530.5,58.8 1529,67.7 1525.8,76.1 1520.9,84.2 1519.1,86.4 
		1517.1,88.4 1514.8,90.2 1512.4,91.7 1504,94.4 1497.1,92.8 1491.8,87.7 1488.2,79.8 1487.4,76.7 1486.9,73.4 1486.5,70.2 
		1486.1,67.1 1485.9,65.2 1485.7,63.3 1485.7,61.6 1485.9,60.1 	"/>
	<polygon class="st0" points="370.2,61 367.5,72.3 360.6,84.1 350.7,92.5 339,93.6 336.2,92.6 333.9,91.1 332,89.2 330.5,87 
		326.8,74.9 325.7,60.6 326.2,46.1 327.7,33.2 328.9,27.2 330.9,23.5 334.6,21.9 340.9,22.2 354.6,26.5 363.6,34.4 368.6,45.9 
		370.2,61 	"/>
</g>
</svg>
